<?xml version="1.0" standalone="no"?>
<!DOCTYPE svg PUBLIC "-//W3C//DTD SVG 20010904//EN"
 "http://www.w3.org/TR/2001/REC-SVG-20010904/DTD/svg10.dtd">
<svg version="1.0" xmlns="http://www.w3.org/2000/svg"
 width="105.000000pt" height="105.000000pt" viewBox="0 0 105.000000 105.000000"
 preserveAspectRatio="xMidYMid meet">
<metadata>
Created by potrace 1.14, written by Peter Selinger 2001-2017
</metadata>
<g transform="translate(0.000000,105.000000) scale(0.100000,-0.100000)"
fill="#000000" stroke="none">
<path d="M20 850 l0 -50 38 0 37 0 0 -52 0 -53 36 -3 c33 -3 35 -5 31 -32 -2
-17 -1 -41 2 -55 5 -20 13 -25 39 -25 32 0 32 0 32 -50 0 -50 0 -50 -32 -50
-27 0 -34 -5 -39 -25 -3 -14 -4 -39 -1 -55 6 -27 4 -29 -31 -32 l-37 -3 0 -53
0 -52 -37 0 -38 0 0 -50 0 -50 60 0 60 0 0 49 c0 49 1 50 33 53 31 3 32 4 35
56 l3 52 35 0 34 0 0 55 0 55 35 0 35 0 0 50 0 50 -35 0 -35 0 0 55 0 55 -35
0 -35 0 0 55 0 55 -35 0 -35 0 0 50 0 50 -60 0 -60 0 0 -50z"/>
<path d="M520 530 l0 -370 55 0 55 0 0 160 0 160 71 0 c67 0 70 -1 64 -21 -10
-31 3 -89 20 -89 11 0 15 -14 15 -55 0 -48 2 -55 20 -55 17 0 20 -7 20 -50 l0
-50 55 0 55 0 0 50 c0 38 -4 50 -15 50 -11 0 -15 12 -15 51 0 42 -3 52 -20 56
-17 5 -20 14 -20 59 0 45 -3 54 -17 54 -15 0 -18 9 -18 47 0 47 1 48 35 53 35
5 35 5 35 58 0 43 3 52 18 52 14 0 17 9 17 55 l0 55 -35 0 -35 0 0 50 0 50
-180 0 -180 0 0 -370z m280 160 l0 -110 -85 0 -85 0 0 110 0 110 85 0 85 0 0
-110z"/>
</g>
</svg>
